<?xml version="1.0" encoding="UTF-8" standalone="no"?>
<!-- Created with Inkscape (http://www.inkscape.org/) -->

<svg
   xmlns:dc="http://purl.org/dc/elements/1.1/"
   xmlns:cc="http://creativecommons.org/ns#"
   xmlns:rdf="http://www.w3.org/1999/02/22-rdf-syntax-ns#"
   xmlns:svg="http://www.w3.org/2000/svg"
   xmlns="http://www.w3.org/2000/svg"
   xmlns:xlink="http://www.w3.org/1999/xlink"
   xmlns:sodipodi="http://sodipodi.sourceforge.net/DTD/sodipodi-0.dtd"
   xmlns:inkscape="http://www.inkscape.org/namespaces/inkscape"
   width="744.09448819"
   height="1052.3622047"
   id="svg2"
   version="1.1"
   inkscape:version="0.48.4 r9939"
   sodipodi:docname="assemblymechanisms.svg">
  <defs
     id="defs4">
    <marker
       inkscape:stockid="Arrow1Mend"
       orient="auto"
       refY="0.0"
       refX="0.0"
       id="Arrow1Mend"
       style="overflow:visible;">
      <path
         id="path4121"
         d="M 0.0,0.0 L 5.0,-5.0 L -12.5,0.0 L 5.0,5.0 L 0.0,0.0 z "
         style="fill-rule:evenodd;stroke:#000000;stroke-width:1.0pt;"
         transform="scale(0.4) rotate(180) translate(10,0)" />
    </marker>
    <marker
       inkscape:stockid="Arrow1Send"
       orient="auto"
       refY="0.0"
       refX="0.0"
       id="Arrow1Send"
       style="overflow:visible;">
      <path
         id="path4127"
         d="M 0.0,0.0 L 5.0,-5.0 L -12.5,0.0 L 5.0,5.0 L 0.0,0.0 z "
         style="fill-rule:evenodd;stroke:#000000;stroke-width:1.0pt;"
         transform="scale(0.2) rotate(180) translate(6,0)" />
    </marker>
    <marker
       inkscape:stockid="Arrow1Lend"
       orient="auto"
       refY="0.0"
       refX="0.0"
       id="Arrow1Lend"
       style="overflow:visible;">
      <path
         id="path4115"
         d="M 0.0,0.0 L 5.0,-5.0 L -12.5,0.0 L 5.0,5.0 L 0.0,0.0 z "
         style="fill-rule:evenodd;stroke:#000000;stroke-width:1.0pt;"
         transform="scale(0.8) rotate(180) translate(12.5,0)" />
    </marker>
    <linearGradient
       id="linearGradient3755">
      <stop
         style="stop-color:#ffdfb5;stop-opacity:1;"
         offset="0"
         id="stop3757" />
      <stop
         style="stop-color:#ffad43;stop-opacity:1;"
         offset="1"
         id="stop3759" />
    </linearGradient>
    <linearGradient
       inkscape:collect="always"
       xlink:href="#linearGradient3755"
       id="linearGradient3761"
       x1="96.494942"
       y1="145.24519"
       x2="117.65739"
       y2="164.4381"
       gradientUnits="userSpaceOnUse" />
    <linearGradient
       inkscape:collect="always"
       xlink:href="#linearGradient3755"
       id="linearGradient3820"
       gradientUnits="userSpaceOnUse"
       x1="96.494942"
       y1="145.24519"
       x2="117.65739"
       y2="164.4381" />
    <linearGradient
       inkscape:collect="always"
       xlink:href="#linearGradient3755"
       id="linearGradient4016"
       gradientUnits="userSpaceOnUse"
       x1="96.494942"
       y1="145.24519"
       x2="117.65739"
       y2="164.4381" />
    <linearGradient
       inkscape:collect="always"
       xlink:href="#linearGradient3755"
       id="linearGradient4018"
       gradientUnits="userSpaceOnUse"
       x1="96.494942"
       y1="145.24519"
       x2="117.65739"
       y2="164.4381" />
    <linearGradient
       inkscape:collect="always"
       xlink:href="#linearGradient3755"
       id="linearGradient4020"
       gradientUnits="userSpaceOnUse"
       x1="96.494942"
       y1="145.24519"
       x2="117.65739"
       y2="164.4381" />
    <linearGradient
       inkscape:collect="always"
       xlink:href="#linearGradient3755"
       id="linearGradient4022"
       gradientUnits="userSpaceOnUse"
       x1="96.494942"
       y1="145.24519"
       x2="117.65739"
       y2="164.4381" />
    <linearGradient
       inkscape:collect="always"
       xlink:href="#linearGradient3755"
       id="linearGradient4028"
       gradientUnits="userSpaceOnUse"
       x1="96.494942"
       y1="145.24519"
       x2="117.65739"
       y2="164.4381" />
    <linearGradient
       inkscape:collect="always"
       xlink:href="#linearGradient3755"
       id="linearGradient4030"
       gradientUnits="userSpaceOnUse"
       x1="96.494942"
       y1="145.24519"
       x2="117.65739"
       y2="164.4381" />
    <linearGradient
       inkscape:collect="always"
       xlink:href="#linearGradient3755"
       id="linearGradient4066"
       gradientUnits="userSpaceOnUse"
       x1="96.494942"
       y1="145.24519"
       x2="117.65739"
       y2="164.4381" />
    <linearGradient
       inkscape:collect="always"
       xlink:href="#linearGradient3755"
       id="linearGradient4074"
       gradientUnits="userSpaceOnUse"
       x1="96.494942"
       y1="145.24519"
       x2="117.65739"
       y2="164.4381" />
    <linearGradient
       inkscape:collect="always"
       xlink:href="#linearGradient3755"
       id="linearGradient4076"
       gradientUnits="userSpaceOnUse"
       x1="96.494942"
       y1="145.24519"
       x2="117.65739"
       y2="164.4381" />
    <linearGradient
       inkscape:collect="always"
       xlink:href="#linearGradient3755"
       id="linearGradient4078"
       gradientUnits="userSpaceOnUse"
       x1="96.494942"
       y1="145.24519"
       x2="117.65739"
       y2="164.4381" />
    <linearGradient
       inkscape:collect="always"
       xlink:href="#linearGradient3755"
       id="linearGradient4080"
       gradientUnits="userSpaceOnUse"
       x1="96.494942"
       y1="145.24519"
       x2="117.65739"
       y2="164.4381" />
    <linearGradient
       inkscape:collect="always"
       xlink:href="#linearGradient3755"
       id="linearGradient4082"
       gradientUnits="userSpaceOnUse"
       x1="96.494942"
       y1="145.24519"
       x2="117.65739"
       y2="164.4381" />
    <linearGradient
       inkscape:collect="always"
       xlink:href="#linearGradient3755"
       id="linearGradient4084"
       gradientUnits="userSpaceOnUse"
       x1="96.494942"
       y1="145.24519"
       x2="117.65739"
       y2="164.4381" />
    <linearGradient
       inkscape:collect="always"
       xlink:href="#linearGradient3755"
       id="linearGradient4086"
       gradientUnits="userSpaceOnUse"
       x1="96.494942"
       y1="145.24519"
       x2="117.65739"
       y2="164.4381" />
    <linearGradient
       inkscape:collect="always"
       xlink:href="#linearGradient3755"
       id="linearGradient4088"
       gradientUnits="userSpaceOnUse"
       x1="96.494942"
       y1="145.24519"
       x2="117.65739"
       y2="164.4381" />
    <linearGradient
       inkscape:collect="always"
       xlink:href="#linearGradient3755"
       id="linearGradient4090"
       gradientUnits="userSpaceOnUse"
       x1="96.494942"
       y1="145.24519"
       x2="117.65739"
       y2="164.4381" />
    <linearGradient
       inkscape:collect="always"
       xlink:href="#linearGradient3755"
       id="linearGradient4092"
       gradientUnits="userSpaceOnUse"
       x1="96.494942"
       y1="145.24519"
       x2="117.65739"
       y2="164.4381" />
    <linearGradient
       inkscape:collect="always"
       xlink:href="#linearGradient3755"
       id="linearGradient4094"
       gradientUnits="userSpaceOnUse"
       x1="96.494942"
       y1="145.24519"
       x2="117.65739"
       y2="164.4381" />
    <linearGradient
       inkscape:collect="always"
       xlink:href="#linearGradient3755"
       id="linearGradient4096"
       gradientUnits="userSpaceOnUse"
       x1="96.494942"
       y1="145.24519"
       x2="117.65739"
       y2="164.4381" />
    <linearGradient
       inkscape:collect="always"
       xlink:href="#linearGradient3755"
       id="linearGradient5545"
       gradientUnits="userSpaceOnUse"
       x1="96.494942"
       y1="145.24519"
       x2="117.65739"
       y2="164.4381" />
    <linearGradient
       inkscape:collect="always"
       xlink:href="#linearGradient3755"
       id="linearGradient5616"
       gradientUnits="userSpaceOnUse"
       x1="96.494942"
       y1="145.24519"
       x2="117.65739"
       y2="164.4381" />
    <linearGradient
       inkscape:collect="always"
       xlink:href="#linearGradient3755"
       id="linearGradient5618"
       gradientUnits="userSpaceOnUse"
       x1="96.494942"
       y1="145.24519"
       x2="117.65739"
       y2="164.4381" />
    <linearGradient
       inkscape:collect="always"
       xlink:href="#linearGradient3755"
       id="linearGradient5620"
       gradientUnits="userSpaceOnUse"
       x1="96.494942"
       y1="145.24519"
       x2="117.65739"
       y2="164.4381" />
    <linearGradient
       inkscape:collect="always"
       xlink:href="#linearGradient3755"
       id="linearGradient5634"
       gradientUnits="userSpaceOnUse"
       x1="96.494942"
       y1="145.24519"
       x2="117.65739"
       y2="164.4381" />
    <linearGradient
       inkscape:collect="always"
       xlink:href="#linearGradient3755"
       id="linearGradient5636"
       gradientUnits="userSpaceOnUse"
       x1="96.494942"
       y1="145.24519"
       x2="117.65739"
       y2="164.4381" />
    <linearGradient
       inkscape:collect="always"
       xlink:href="#linearGradient3755"
       id="linearGradient5638"
       gradientUnits="userSpaceOnUse"
       x1="96.494942"
       y1="145.24519"
       x2="117.65739"
       y2="164.4381" />
    <linearGradient
       inkscape:collect="always"
       xlink:href="#linearGradient3755"
       id="linearGradient5640"
       gradientUnits="userSpaceOnUse"
       x1="96.494942"
       y1="145.24519"
       x2="117.65739"
       y2="164.4381" />
    <linearGradient
       inkscape:collect="always"
       xlink:href="#linearGradient3755"
       id="linearGradient5642"
       gradientUnits="userSpaceOnUse"
       x1="96.494942"
       y1="145.24519"
       x2="117.65739"
       y2="164.4381" />
    <linearGradient
       inkscape:collect="always"
       xlink:href="#linearGradient3755"
       id="linearGradient5644"
       gradientUnits="userSpaceOnUse"
       x1="96.494942"
       y1="145.24519"
       x2="117.65739"
       y2="164.4381" />
  </defs>
  <sodipodi:namedview
     id="base"
     pagecolor="#ffffff"
     bordercolor="#666666"
     borderopacity="1.0"
     inkscape:pageopacity="0.0"
     inkscape:pageshadow="2"
     inkscape:zoom="0.75528045"
     inkscape:cx="319.56722"
     inkscape:cy="626.09581"
     inkscape:document-units="px"
     inkscape:current-layer="layer1"
     showgrid="false"
     inkscape:window-width="1600"
     inkscape:window-height="880"
     inkscape:window-x="-2"
     inkscape:window-y="-3"
     inkscape:window-maximized="1"
     showguides="true"
     inkscape:guide-bbox="true" />
  <metadata
     id="metadata7">
    <rdf:RDF>
      <cc:Work
         rdf:about="">
        <dc:format>image/svg+xml</dc:format>
        <dc:type
           rdf:resource="http://purl.org/dc/dcmitype/StillImage" />
        <dc:title />
      </cc:Work>
    </rdf:RDF>
  </metadata>
  <g
     inkscape:label="Layer 1"
     inkscape:groupmode="layer"
     id="layer1">
    <path
       sodipodi:type="arc"
       style="fill:url(#linearGradient3761);fill-opacity:1;stroke:#ff302c;stroke-width:5;stroke-miterlimit:4;stroke-opacity:1;stroke-dasharray:none"
       id="path2985"
       sodipodi:cx="105.05586"
       sodipodi:cy="151.30611"
       sodipodi:rx="20.203054"
       sodipodi:ry="20.203054"
       d="m 125.25892,151.30611 a 20.203054,20.203054 0 1 1 -40.406112,0 20.203054,20.203054 0 1 1 40.406112,0 z"
       transform="translate(-20.000002,10)" />
    <g
       id="g4032"
       transform="translate(-15.999994,0)">
      <path
         d="m 125.25892,151.30611 c 0,11.15784 -9.04522,20.20305 -20.20306,20.20305 -11.157836,0 -20.203052,-9.04521 -20.203052,-20.20305 0,-11.15784 9.045216,-20.20306 20.203052,-20.20306 11.15784,0 20.20306,9.04522 20.20306,20.20306 z"
         sodipodi:ry="20.203054"
         sodipodi:rx="20.203054"
         sodipodi:cy="151.30611"
         sodipodi:cx="105.05586"
         id="path3767"
         style="fill:url(#linearGradient4066);fill-opacity:1;stroke:#ff302c;stroke-width:5;stroke-miterlimit:4;stroke-opacity:1;stroke-dasharray:none"
         sodipodi:type="arc"
         transform="translate(156,38)" />
      <path
         transform="translate(176,2)"
         sodipodi:type="arc"
         style="fill:url(#linearGradient5545);fill-opacity:1;stroke:#ff302c;stroke-width:5;stroke-miterlimit:4;stroke-opacity:1;stroke-dasharray:none"
         id="path5543"
         sodipodi:cx="105.05586"
         sodipodi:cy="151.30611"
         sodipodi:rx="20.203054"
         sodipodi:ry="20.203054"
         d="m 125.25892,151.30611 c 0,11.15784 -9.04522,20.20305 -20.20306,20.20305 -11.157836,0 -20.203052,-9.04521 -20.203052,-20.20305 0,-11.15784 9.045216,-20.20306 20.203052,-20.20306 11.15784,0 20.20306,9.04522 20.20306,20.20306 z" />
    </g>
    <path
       d="m 125.25892,151.30611 a 20.203054,20.203054 0 1 1 -40.406112,0 20.203054,20.203054 0 1 1 40.406112,0 z"
       sodipodi:ry="20.203054"
       sodipodi:rx="20.203054"
       sodipodi:cy="151.30611"
       sodipodi:cx="105.05586"
       id="path3818"
       style="fill:url(#linearGradient3820);fill-opacity:1;stroke:#ff302c;stroke-width:5;stroke-miterlimit:4;stroke-opacity:1;stroke-dasharray:none"
       sodipodi:type="arc"
       transform="translate(-20.000002,326)" />
    <g
       id="g4024"
       transform="translate(16.000006,90.999998)">
      <path
         transform="translate(148,230)"
         sodipodi:type="arc"
         style="fill:url(#linearGradient4028);fill-opacity:1;stroke:#ff302c;stroke-width:5;stroke-miterlimit:4;stroke-opacity:1;stroke-dasharray:none"
         id="path3826"
         sodipodi:cx="105.05586"
         sodipodi:cy="151.30611"
         sodipodi:rx="20.203054"
         sodipodi:ry="20.203054"
         d="m 125.25892,151.30611 c 0,11.15784 -9.04522,20.20305 -20.20306,20.20305 -11.157836,0 -20.203052,-9.04521 -20.203052,-20.20305 0,-11.15784 9.045216,-20.20306 20.203052,-20.20306 11.15784,0 20.20306,9.04522 20.20306,20.20306 z" />
      <path
         d="m 125.25892,151.30611 c 0,11.15784 -9.04522,20.20305 -20.20306,20.20305 -11.157836,0 -20.203052,-9.04521 -20.203052,-20.20305 0,-11.15784 9.045216,-20.20306 20.203052,-20.20306 11.15784,0 20.20306,9.04522 20.20306,20.20306 z"
         sodipodi:ry="20.203054"
         sodipodi:rx="20.203054"
         sodipodi:cy="151.30611"
         sodipodi:cx="105.05586"
         id="path3822"
         style="fill:url(#linearGradient4030);fill-opacity:1;stroke:#ff302c;stroke-width:5;stroke-miterlimit:4;stroke-opacity:1;stroke-dasharray:none"
         sodipodi:type="arc"
         transform="translate(120,240)" />
    </g>
    <g
       id="g4047"
       transform="translate(-10.000025,94)">
      <g
         id="g3980"
         transform="translate(180,42)">
        <path
           d="m 125.25892,151.30611 c 0,11.15784 -9.04522,20.20305 -20.20306,20.20305 -11.157836,0 -20.203052,-9.04521 -20.203052,-20.20305 0,-11.15784 9.045216,-20.20306 20.203052,-20.20306 11.15784,0 20.20306,9.04522 20.20306,20.20306 z"
           sodipodi:ry="20.203054"
           sodipodi:rx="20.203054"
           sodipodi:cy="151.30611"
           sodipodi:cx="105.05586"
           id="path3982"
           style="fill:url(#linearGradient4074);fill-opacity:1;stroke:#ff302c;stroke-width:5;stroke-miterlimit:4;stroke-opacity:1;stroke-dasharray:none"
           sodipodi:type="arc"
           transform="matrix(1,0,0,-1,340,518.61221)" />
        <path
           transform="translate(368,232)"
           sodipodi:type="arc"
           style="fill:url(#linearGradient4076);fill-opacity:1;stroke:#ff302c;stroke-width:5;stroke-miterlimit:4;stroke-opacity:1;stroke-dasharray:none"
           id="path3984"
           sodipodi:cx="105.05586"
           sodipodi:cy="151.30611"
           sodipodi:rx="20.203054"
           sodipodi:ry="20.203054"
           d="m 125.25892,151.30611 c 0,11.15784 -9.04522,20.20305 -20.20306,20.20305 -11.157836,0 -20.203052,-9.04521 -20.203052,-20.20305 0,-11.15784 9.045216,-20.20306 20.203052,-20.20306 11.15784,0 20.20306,9.04522 20.20306,20.20306 z" />
        <path
           transform="translate(312,248)"
           sodipodi:type="arc"
           style="fill:url(#linearGradient4078);fill-opacity:1;stroke:#ff302c;stroke-width:5;stroke-miterlimit:4;stroke-opacity:1;stroke-dasharray:none"
           id="path3986"
           sodipodi:cx="105.05586"
           sodipodi:cy="151.30611"
           sodipodi:rx="20.203054"
           sodipodi:ry="20.203054"
           d="m 125.25892,151.30611 c 0,11.15784 -9.04522,20.20305 -20.20306,20.20305 -11.157836,0 -20.203052,-9.04521 -20.203052,-20.20305 0,-11.15784 9.045216,-20.20306 20.203052,-20.20306 11.15784,0 20.20306,9.04522 20.20306,20.20306 z" />
        <path
           d="m 125.25892,151.30611 c 0,11.15784 -9.04522,20.20305 -20.20306,20.20305 -11.157836,0 -20.203052,-9.04521 -20.203052,-20.20305 0,-11.15784 9.045216,-20.20306 20.203052,-20.20306 11.15784,0 20.20306,9.04522 20.20306,20.20306 z"
           sodipodi:ry="20.203054"
           sodipodi:rx="20.203054"
           sodipodi:cy="151.30611"
           sodipodi:cx="105.05586"
           id="path3988"
           style="fill:url(#linearGradient4080);fill-opacity:1;stroke:#ff302c;stroke-width:5;stroke-miterlimit:4;stroke-opacity:1;stroke-dasharray:none"
           sodipodi:type="arc"
           transform="translate(340,240)" />
      </g>
      <g
         transform="translate(180,0)"
         id="g3956">
        <path
           d="m 125.25892,151.30611 c 0,11.15784 -9.04522,20.20305 -20.20306,20.20305 -11.157836,0 -20.203052,-9.04521 -20.203052,-20.20305 0,-11.15784 9.045216,-20.20306 20.203052,-20.20306 11.15784,0 20.20306,9.04522 20.20306,20.20306 z"
           sodipodi:ry="20.203054"
           sodipodi:rx="20.203054"
           sodipodi:cy="151.30611"
           sodipodi:cx="105.05586"
           id="path3944"
           style="fill:url(#linearGradient4082);fill-opacity:1;stroke:#ff302c;stroke-width:5;stroke-miterlimit:4;stroke-opacity:1;stroke-dasharray:none"
           sodipodi:type="arc"
           transform="matrix(1,0,0,-1,340,518.61221)" />
        <path
           transform="translate(368,232)"
           sodipodi:type="arc"
           style="fill:url(#linearGradient4084);fill-opacity:1;stroke:#ff302c;stroke-width:5;stroke-miterlimit:4;stroke-opacity:1;stroke-dasharray:none"
           id="path3936"
           sodipodi:cx="105.05586"
           sodipodi:cy="151.30611"
           sodipodi:rx="20.203054"
           sodipodi:ry="20.203054"
           d="m 125.25892,151.30611 c 0,11.15784 -9.04522,20.20305 -20.20306,20.20305 -11.157836,0 -20.203052,-9.04521 -20.203052,-20.20305 0,-11.15784 9.045216,-20.20306 20.203052,-20.20306 11.15784,0 20.20306,9.04522 20.20306,20.20306 z" />
        <path
           transform="translate(312,248)"
           sodipodi:type="arc"
           style="fill:url(#linearGradient4086);fill-opacity:1;stroke:#ff302c;stroke-width:5;stroke-miterlimit:4;stroke-opacity:1;stroke-dasharray:none"
           id="path3952"
           sodipodi:cx="105.05586"
           sodipodi:cy="151.30611"
           sodipodi:rx="20.203054"
           sodipodi:ry="20.203054"
           d="m 125.25892,151.30611 c 0,11.15784 -9.04522,20.20305 -20.20306,20.20305 -11.157836,0 -20.203052,-9.04521 -20.203052,-20.20305 0,-11.15784 9.045216,-20.20306 20.203052,-20.20306 11.15784,0 20.20306,9.04522 20.20306,20.20306 z" />
        <path
           d="m 125.25892,151.30611 c 0,11.15784 -9.04522,20.20305 -20.20306,20.20305 -11.157836,0 -20.203052,-9.04521 -20.203052,-20.20305 0,-11.15784 9.045216,-20.20306 20.203052,-20.20306 11.15784,0 20.20306,9.04522 20.20306,20.20306 z"
           sodipodi:ry="20.203054"
           sodipodi:rx="20.203054"
           sodipodi:cy="151.30611"
           sodipodi:cx="105.05586"
           id="path3938"
           style="fill:url(#linearGradient4088);fill-opacity:1;stroke:#ff302c;stroke-width:5;stroke-miterlimit:4;stroke-opacity:1;stroke-dasharray:none"
           sodipodi:type="arc"
           transform="translate(340,240)" />
      </g>
      <g
         transform="translate(180,-42)"
         id="g3962">
        <path
           transform="matrix(1,0,0,-1,340,518.61221)"
           sodipodi:type="arc"
           style="fill:url(#linearGradient4090);fill-opacity:1;stroke:#ff302c;stroke-width:5;stroke-miterlimit:4;stroke-opacity:1;stroke-dasharray:none"
           id="path3964"
           sodipodi:cx="105.05586"
           sodipodi:cy="151.30611"
           sodipodi:rx="20.203054"
           sodipodi:ry="20.203054"
           d="m 125.25892,151.30611 c 0,11.15784 -9.04522,20.20305 -20.20306,20.20305 -11.157836,0 -20.203052,-9.04521 -20.203052,-20.20305 0,-11.15784 9.045216,-20.20306 20.203052,-20.20306 11.15784,0 20.20306,9.04522 20.20306,20.20306 z" />
        <path
           d="m 125.25892,151.30611 c 0,11.15784 -9.04522,20.20305 -20.20306,20.20305 -11.157836,0 -20.203052,-9.04521 -20.203052,-20.20305 0,-11.15784 9.045216,-20.20306 20.203052,-20.20306 11.15784,0 20.20306,9.04522 20.20306,20.20306 z"
           sodipodi:ry="20.203054"
           sodipodi:rx="20.203054"
           sodipodi:cy="151.30611"
           sodipodi:cx="105.05586"
           id="path3966"
           style="fill:url(#linearGradient4092);fill-opacity:1;stroke:#ff302c;stroke-width:5;stroke-miterlimit:4;stroke-opacity:1;stroke-dasharray:none"
           sodipodi:type="arc"
           transform="translate(368,232)" />
        <path
           d="m 125.25892,151.30611 c 0,11.15784 -9.04522,20.20305 -20.20306,20.20305 -11.157836,0 -20.203052,-9.04521 -20.203052,-20.20305 0,-11.15784 9.045216,-20.20306 20.203052,-20.20306 11.15784,0 20.20306,9.04522 20.20306,20.20306 z"
           sodipodi:ry="20.203054"
           sodipodi:rx="20.203054"
           sodipodi:cy="151.30611"
           sodipodi:cx="105.05586"
           id="path3968"
           style="fill:url(#linearGradient4094);fill-opacity:1;stroke:#ff302c;stroke-width:5;stroke-miterlimit:4;stroke-opacity:1;stroke-dasharray:none"
           sodipodi:type="arc"
           transform="translate(312,248)" />
        <path
           transform="translate(340,240)"
           sodipodi:type="arc"
           style="fill:url(#linearGradient4096);fill-opacity:1;stroke:#ff302c;stroke-width:5;stroke-miterlimit:4;stroke-opacity:1;stroke-dasharray:none"
           id="path3970"
           sodipodi:cx="105.05586"
           sodipodi:cy="151.30611"
           sodipodi:rx="20.203054"
           sodipodi:ry="20.203054"
           d="m 125.25892,151.30611 c 0,11.15784 -9.04522,20.20305 -20.20306,20.20305 -11.157836,0 -20.203052,-9.04521 -20.203052,-20.20305 0,-11.15784 9.045216,-20.20306 20.203052,-20.20306 11.15784,0 20.20306,9.04522 20.20306,20.20306 z" />
      </g>
    </g>
    <g
       id="g4006"
       transform="translate(-9.99999,94)">
      <path
         d="m 125.25892,151.30611 c 0,11.15784 -9.04522,20.20305 -20.20306,20.20305 -11.157836,0 -20.203052,-9.04521 -20.203052,-20.20305 0,-11.15784 9.045216,-20.20306 20.203052,-20.20306 11.15784,0 20.20306,9.04522 20.20306,20.20306 z"
         sodipodi:ry="20.203054"
         sodipodi:rx="20.203054"
         sodipodi:cy="151.30611"
         sodipodi:cx="105.05586"
         id="path4008"
         style="fill:url(#linearGradient4016);fill-opacity:1;stroke:#ff302c;stroke-width:5;stroke-miterlimit:4;stroke-opacity:1;stroke-dasharray:none"
         sodipodi:type="arc"
         transform="matrix(1,0,0,-1,340,518.61221)" />
      <path
         transform="translate(368,232)"
         sodipodi:type="arc"
         style="fill:url(#linearGradient4018);fill-opacity:1;stroke:#ff302c;stroke-width:5;stroke-miterlimit:4;stroke-opacity:1;stroke-dasharray:none"
         id="path4010"
         sodipodi:cx="105.05586"
         sodipodi:cy="151.30611"
         sodipodi:rx="20.203054"
         sodipodi:ry="20.203054"
         d="m 125.25892,151.30611 c 0,11.15784 -9.04522,20.20305 -20.20306,20.20305 -11.157836,0 -20.203052,-9.04521 -20.203052,-20.20305 0,-11.15784 9.045216,-20.20306 20.203052,-20.20306 11.15784,0 20.20306,9.04522 20.20306,20.20306 z" />
      <path
         transform="translate(312,248)"
         sodipodi:type="arc"
         style="fill:url(#linearGradient4020);fill-opacity:1;stroke:#ff302c;stroke-width:5;stroke-miterlimit:4;stroke-opacity:1;stroke-dasharray:none"
         id="path4012"
         sodipodi:cx="105.05586"
         sodipodi:cy="151.30611"
         sodipodi:rx="20.203054"
         sodipodi:ry="20.203054"
         d="m 125.25892,151.30611 c 0,11.15784 -9.04522,20.20305 -20.20306,20.20305 -11.157836,0 -20.203052,-9.04521 -20.203052,-20.20305 0,-11.15784 9.045216,-20.20306 20.203052,-20.20306 11.15784,0 20.20306,9.04522 20.20306,20.20306 z" />
      <path
         d="m 125.25892,151.30611 c 0,11.15784 -9.04522,20.20305 -20.20306,20.20305 -11.157836,0 -20.203052,-9.04521 -20.203052,-20.20305 0,-11.15784 9.045216,-20.20306 20.203052,-20.20306 11.15784,0 20.20306,9.04522 20.20306,20.20306 z"
         sodipodi:ry="20.203054"
         sodipodi:rx="20.203054"
         sodipodi:cy="151.30611"
         sodipodi:cx="105.05586"
         id="path4014"
         style="fill:url(#linearGradient4022);fill-opacity:1;stroke:#ff302c;stroke-width:5;stroke-miterlimit:4;stroke-opacity:1;stroke-dasharray:none"
         sodipodi:type="arc"
         transform="translate(340,240)" />
    </g>
    <path
       style="fill:none;stroke:#000000;stroke-width:2;stroke-linecap:butt;stroke-linejoin:miter;stroke-miterlimit:4;stroke-opacity:1;stroke-dasharray:none;marker-end:url(#Arrow1Mend)"
       d="m 146.96528,159.97841 39.72035,0"
       id="path4106"
       inkscape:connector-curvature="0" />
    <path
       inkscape:connector-curvature="0"
       id="path5486"
       d="m 146.96528,473.97841 39.72035,0"
       style="fill:none;stroke:#000000;stroke-width:2;stroke-linecap:butt;stroke-linejoin:miter;stroke-miterlimit:4;stroke-opacity:1;stroke-dasharray:none;marker-end:url(#Arrow1Mend)" />
    <path
       inkscape:connector-curvature="0"
       id="path5488"
       d="m 326.96528,159.97841 39.72035,0"
       style="fill:none;stroke:#000000;stroke-width:2;stroke-linecap:butt;stroke-linejoin:miter;stroke-miterlimit:4;stroke-opacity:1;stroke-dasharray:none;marker-end:url(#Arrow1Mend)" />
    <g
       id="g5656"
       transform="translate(0,94)">
      <path
         style="fill:none;stroke:#000000;stroke-width:2;stroke-linecap:butt;stroke-linejoin:miter;stroke-miterlimit:4;stroke-opacity:1;stroke-dasharray:none;marker-end:url(#Arrow1Mend)"
         d="m 506.96528,379.97841 39.72035,0"
         id="path5494"
         inkscape:connector-curvature="0" />
      <path
         sodipodi:nodetypes="cc"
         inkscape:connector-curvature="0"
         id="path5496"
         d="m 506.96528,367.97841 24.74087,0"
         style="fill:none;stroke:#000000;stroke-width:2;stroke-linecap:butt;stroke-linejoin:miter;stroke-miterlimit:4;stroke-opacity:1;stroke-dasharray:none;marker-end:url(#Arrow1Mend)" />
      <path
         inkscape:connector-curvature="0"
         id="path5498"
         d="m 506.96528,379.97841 39.72035,0"
         style="fill:none;stroke:#000000;stroke-width:2;stroke-linecap:butt;stroke-linejoin:miter;stroke-miterlimit:4;stroke-opacity:1;stroke-dasharray:none;marker-end:url(#Arrow1Mend)" />
      <path
         style="fill:none;stroke:#000000;stroke-width:2;stroke-linecap:butt;stroke-linejoin:miter;stroke-miterlimit:4;stroke-opacity:1;stroke-dasharray:none;marker-end:url(#Arrow1Mend)"
         d="m 506.96528,367.97841 24.74087,0"
         id="path5500"
         inkscape:connector-curvature="0"
         sodipodi:nodetypes="cc" />
    </g>
    <g
       id="g5652"
       transform="translate(20,94)">
      <path
         inkscape:connector-curvature="0"
         id="path5492"
         d="m 306.96528,379.97841 39.72035,0"
         style="fill:none;stroke:#000000;stroke-width:2;stroke-linecap:butt;stroke-linejoin:miter;stroke-miterlimit:4;stroke-opacity:1;stroke-dasharray:none;marker-end:url(#Arrow1Mend)" />
      <path
         sodipodi:nodetypes="cc"
         inkscape:connector-curvature="0"
         id="path5502"
         d="m 306.96528,367.97841 24.74087,0"
         style="fill:none;stroke:#000000;stroke-width:2;stroke-linecap:butt;stroke-linejoin:miter;stroke-miterlimit:4;stroke-opacity:1;stroke-dasharray:none;marker-end:url(#Arrow1Mend)" />
    </g>
    <g
       id="g5557"
       transform="translate(164.00001,-72)">
      <g
         id="g5570">
        <g
           id="g5547"
           transform="translate(0,72)">
          <path
             d="m 125.25892,151.30611 c 0,11.15784 -9.04522,20.20305 -20.20306,20.20305 -11.157836,0 -20.203052,-9.04521 -20.203052,-20.20305 0,-11.15784 9.045216,-20.20306 20.203052,-20.20306 11.15784,0 20.20306,9.04522 20.20306,20.20306 z"
             sodipodi:ry="20.203054"
             sodipodi:rx="20.203054"
             sodipodi:cy="151.30611"
             sodipodi:cx="105.05586"
             id="path5549"
             style="fill:url(#linearGradient5616);fill-opacity:1;stroke:#ff302c;stroke-width:5;stroke-miterlimit:4;stroke-opacity:1;stroke-dasharray:none"
             sodipodi:type="arc"
             transform="translate(156,38)" />
          <path
             transform="translate(176,2)"
             sodipodi:type="arc"
             style="fill:url(#linearGradient5618);fill-opacity:1;stroke:#ff302c;stroke-width:5;stroke-miterlimit:4;stroke-opacity:1;stroke-dasharray:none"
             id="path5551"
             sodipodi:cx="105.05586"
             sodipodi:cy="151.30611"
             sodipodi:rx="20.203054"
             sodipodi:ry="20.203054"
             d="m 125.25892,151.30611 c 0,11.15784 -9.04522,20.20305 -20.20306,20.20305 -11.157836,0 -20.203052,-9.04521 -20.203052,-20.20305 0,-11.15784 9.045216,-20.20306 20.203052,-20.20306 11.15784,0 20.20306,9.04522 20.20306,20.20306 z" />
        </g>
        <path
           transform="translate(156,38)"
           sodipodi:type="arc"
           style="fill:url(#linearGradient5620);fill-opacity:1;stroke:#ff302c;stroke-width:5;stroke-miterlimit:4;stroke-opacity:1;stroke-dasharray:none"
           id="path5559"
           sodipodi:cx="105.05586"
           sodipodi:cy="151.30611"
           sodipodi:rx="20.203054"
           sodipodi:ry="20.203054"
           d="m 125.25892,151.30611 c 0,11.15784 -9.04522,20.20305 -20.20306,20.20305 -11.157836,0 -20.203052,-9.04521 -20.203052,-20.20305 0,-11.15784 9.045216,-20.20306 20.203052,-20.20306 11.15784,0 20.20306,9.04522 20.20306,20.20306 z" />
      </g>
    </g>
    <g
       id="g5622"
       transform="translate(-20.000035,40)">
      <g
         id="g5576"
         transform="translate(364.00001,20)">
        <path
           d="m 125.25892,151.30611 c 0,11.15784 -9.04522,20.20305 -20.20306,20.20305 -11.157836,0 -20.203052,-9.04521 -20.203052,-20.20305 0,-11.15784 9.045216,-20.20306 20.203052,-20.20306 11.15784,0 20.20306,9.04522 20.20306,20.20306 z"
           sodipodi:ry="20.203054"
           sodipodi:rx="20.203054"
           sodipodi:cy="151.30611"
           sodipodi:cx="105.05586"
           id="path5578"
           style="fill:url(#linearGradient5634);fill-opacity:1;stroke:#ff302c;stroke-width:5;stroke-miterlimit:4;stroke-opacity:1;stroke-dasharray:none"
           sodipodi:type="arc"
           transform="translate(156,38)" />
        <path
           transform="translate(176,2)"
           sodipodi:type="arc"
           style="fill:url(#linearGradient5636);fill-opacity:1;stroke:#ff302c;stroke-width:5;stroke-miterlimit:4;stroke-opacity:1;stroke-dasharray:none"
           id="path5580"
           sodipodi:cx="105.05586"
           sodipodi:cy="151.30611"
           sodipodi:rx="20.203054"
           sodipodi:ry="20.203054"
           d="m 125.25892,151.30611 c 0,11.15784 -9.04522,20.20305 -20.20306,20.20305 -11.157836,0 -20.203052,-9.04521 -20.203052,-20.20305 0,-11.15784 9.045216,-20.20306 20.203052,-20.20306 11.15784,0 20.20306,9.04522 20.20306,20.20306 z" />
      </g>
      <g
         id="g5586"
         transform="translate(364.00001,-124)">
        <g
           id="g5588">
          <g
             id="g5590"
             transform="translate(0,72)">
            <path
               d="m 125.25892,151.30611 c 0,11.15784 -9.04522,20.20305 -20.20306,20.20305 -11.157836,0 -20.203052,-9.04521 -20.203052,-20.20305 0,-11.15784 9.045216,-20.20306 20.203052,-20.20306 11.15784,0 20.20306,9.04522 20.20306,20.20306 z"
               sodipodi:ry="20.203054"
               sodipodi:rx="20.203054"
               sodipodi:cy="151.30611"
               sodipodi:cx="105.05586"
               id="path5592"
               style="fill:url(#linearGradient5638);fill-opacity:1;stroke:#ff302c;stroke-width:5;stroke-miterlimit:4;stroke-opacity:1;stroke-dasharray:none"
               sodipodi:type="arc"
               transform="translate(156,38)" />
            <path
               transform="translate(176,2)"
               sodipodi:type="arc"
               style="fill:url(#linearGradient5640);fill-opacity:1;stroke:#ff302c;stroke-width:5;stroke-miterlimit:4;stroke-opacity:1;stroke-dasharray:none"
               id="path5594"
               sodipodi:cx="105.05586"
               sodipodi:cy="151.30611"
               sodipodi:rx="20.203054"
               sodipodi:ry="20.203054"
               d="m 125.25892,151.30611 c 0,11.15784 -9.04522,20.20305 -20.20306,20.20305 -11.157836,0 -20.203052,-9.04521 -20.203052,-20.20305 0,-11.15784 9.045216,-20.20306 20.203052,-20.20306 11.15784,0 20.20306,9.04522 20.20306,20.20306 z" />
          </g>
          <path
             transform="translate(156,38)"
             sodipodi:type="arc"
             style="fill:url(#linearGradient5642);fill-opacity:1;stroke:#ff302c;stroke-width:5;stroke-miterlimit:4;stroke-opacity:1;stroke-dasharray:none"
             id="path5596"
             sodipodi:cx="105.05586"
             sodipodi:cy="151.30611"
             sodipodi:rx="20.203054"
             sodipodi:ry="20.203054"
             d="m 125.25892,151.30611 c 0,11.15784 -9.04522,20.20305 -20.20306,20.20305 -11.157836,0 -20.203052,-9.04521 -20.203052,-20.20305 0,-11.15784 9.045216,-20.20306 20.203052,-20.20306 11.15784,0 20.20306,9.04522 20.20306,20.20306 z" />
        </g>
      </g>
      <path
         sodipodi:type="arc"
         style="fill:url(#linearGradient5644);fill-opacity:1;stroke:#ff302c;stroke-width:5;stroke-miterlimit:4;stroke-opacity:1;stroke-dasharray:none"
         id="path5604"
         sodipodi:cx="105.05586"
         sodipodi:cy="151.30611"
         sodipodi:rx="20.203054"
         sodipodi:ry="20.203054"
         d="m 125.25892,151.30611 c 0,11.15784 -9.04522,20.20305 -20.20306,20.20305 -11.157836,0 -20.203052,-9.04521 -20.203052,-20.20305 0,-11.15784 9.045216,-20.20306 20.203052,-20.20306 11.15784,0 20.20306,9.04522 20.20306,20.20306 z"
         transform="translate(540,-122)" />
    </g>
    <g
       id="g5646"
       transform="translate(0,40)">
      <path
         inkscape:connector-curvature="0"
         id="path5608"
         d="m 506.96528,119.97841 39.72035,0"
         style="fill:none;stroke:#000000;stroke-width:2;stroke-linecap:butt;stroke-linejoin:miter;stroke-miterlimit:4;stroke-opacity:1;stroke-dasharray:none;marker-end:url(#Arrow1Mend)" />
      <path
         style="fill:none;stroke:#000000;stroke-width:2;stroke-linecap:butt;stroke-linejoin:miter;stroke-miterlimit:4;stroke-opacity:1;stroke-dasharray:none;marker-end:url(#Arrow1Mend)"
         d="m 506.96528,107.97841 24.74087,0"
         id="path5610"
         inkscape:connector-curvature="0"
         sodipodi:nodetypes="cc" />
      <path
         style="fill:none;stroke:#000000;stroke-width:2;stroke-linecap:butt;stroke-linejoin:miter;stroke-miterlimit:4;stroke-opacity:1;stroke-dasharray:none;marker-end:url(#Arrow1Mend)"
         d="m 506.96528,119.97841 39.72035,0"
         id="path5612"
         inkscape:connector-curvature="0" />
      <path
         sodipodi:nodetypes="cc"
         inkscape:connector-curvature="0"
         id="path5614"
         d="m 506.96528,107.97841 24.74087,0"
         style="fill:none;stroke:#000000;stroke-width:2;stroke-linecap:butt;stroke-linejoin:miter;stroke-miterlimit:4;stroke-opacity:1;stroke-dasharray:none;marker-end:url(#Arrow1Mend)" />
    </g>
    <text
       xml:space="preserve"
       style="font-size:36px;font-style:normal;font-weight:normal;line-height:125%;letter-spacing:0px;word-spacing:0px;fill:#000000;fill-opacity:1;stroke:none;font-family:Sans"
       x="25.580521"
       y="51.549286"
       id="text5662"
       sodipodi:linespacing="125%"><tspan
         sodipodi:role="line"
         id="tspan5664"
         x="25.580521"
         y="51.549286"
         style="font-size:24px">a) Isodesmic Polymerization</tspan></text>
    <text
       sodipodi:linespacing="125%"
       id="text5666"
       y="365.54929"
       x="25.580521"
       style="font-size:36px;font-style:normal;font-weight:normal;line-height:125%;letter-spacing:0px;word-spacing:0px;fill:#000000;fill-opacity:1;stroke:none;font-family:Sans"
       xml:space="preserve"><tspan
         style="font-size:24px"
         y="365.54929"
         x="25.580521"
         id="tspan5668"
         sodipodi:role="line">b) Cooperative Polymerization</tspan></text>
    <path
       style="fill:none;stroke:#1692ff;stroke-width:5;stroke-linecap:round;stroke-linejoin:miter;stroke-opacity:1;stroke-miterlimit:4;stroke-dasharray:none"
       d="m 426.33171,118.93405 15.88814,26.48023"
       id="path3096"
       inkscape:connector-curvature="0" />
    <path
       inkscape:connector-curvature="0"
       id="path3884"
       d="M 626.21985,72.93405 610.33171,99.41428"
       style="fill:none;stroke:#1692ff;stroke-width:5;stroke-linecap:round;stroke-linejoin:miter;stroke-miterlimit:4;stroke-opacity:1;stroke-dasharray:none" />
    <path
       inkscape:connector-curvature="0"
       id="path3886"
       d="m 264.21985,158.93405 -15.88814,26.48023"
       style="fill:none;stroke:#1692ff;stroke-width:5;stroke-linecap:round;stroke-linejoin:miter;stroke-miterlimit:4;stroke-opacity:1;stroke-dasharray:none" />
    <path
       style="fill:none;stroke:#1692ff;stroke-width:5;stroke-linecap:round;stroke-linejoin:miter;stroke-miterlimit:4;stroke-opacity:1;stroke-dasharray:none"
       d="m 272.24801,469.60256 -27.94446,13.14321"
       id="path3888"
       inkscape:connector-curvature="0" />
    <path
       inkscape:connector-curvature="0"
       id="path3892"
       d="m 434.30355,457.60256 27.94446,13.14321"
       style="fill:none;stroke:#1692ff;stroke-width:5;stroke-linecap:round;stroke-linejoin:miter;stroke-miterlimit:4;stroke-opacity:1;stroke-dasharray:none" />
    <path
       inkscape:connector-curvature="0"
       id="path3896"
       d="m 613.76482,416.34931 0.22467,21.24879"
       style="fill:none;stroke:#004583;stroke-width:5;stroke-linecap:round;stroke-linejoin:miter;stroke-miterlimit:4;stroke-opacity:1;stroke-dasharray:none"
       sodipodi:nodetypes="cc" />
    <path
       sodipodi:nodetypes="cc"
       style="fill:none;stroke:#004583;stroke-width:5;stroke-linecap:round;stroke-linejoin:miter;stroke-miterlimit:4;stroke-opacity:1;stroke-dasharray:none"
       d="m 613.76482,416.34931 -23.27653,19.92478"
       id="path3898"
       inkscape:connector-curvature="0" />
    <path
       style="fill:none;stroke:#1692ff;stroke-width:5;stroke-linecap:round;stroke-linejoin:miter;stroke-miterlimit:4;stroke-opacity:1;stroke-dasharray:none"
       d="m 614.30355,415.60256 27.94446,13.14321"
       id="path3894"
       inkscape:connector-curvature="0" />
    <text
       xml:space="preserve"
       style="font-size:36px;font-style:normal;font-weight:normal;line-height:125%;letter-spacing:0px;word-spacing:0px;fill:#000000;fill-opacity:1;stroke:none;font-family:Sans"
       x="583.58051"
       y="305.54929"
       id="text3096"
       sodipodi:linespacing="125%"><tspan
         sodipodi:role="line"
         id="tspan3098"
         x="583.58051"
         y="305.54929"
         style="font-size:24px;font-style:italic;-inkscape-font-specification:Sans Italic">Fiber</tspan></text>
    <text
       sodipodi:linespacing="125%"
       id="text3100"
       y="589.54932"
       x="585.58051"
       style="font-size:36px;font-style:normal;font-weight:normal;line-height:125%;letter-spacing:0px;word-spacing:0px;fill:#000000;fill-opacity:1;stroke:none;font-family:Sans"
       xml:space="preserve"><tspan
         style="font-size:24px;font-style:italic;-inkscape-font-specification:Sans Italic"
         y="589.54932"
         x="585.58051"
         id="tspan3102"
         sodipodi:role="line">Fiber</tspan></text>
    <text
       xml:space="preserve"
       style="font-size:36px;font-style:normal;font-weight:normal;line-height:125%;letter-spacing:0px;word-spacing:0px;fill:#000000;fill-opacity:1;stroke:none;font-family:Sans"
       x="387.20236"
       y="589.54932"
       id="text3104"
       sodipodi:linespacing="125%"><tspan
         sodipodi:role="line"
         id="tspan3106"
         x="387.20236"
         y="589.54932"
         style="font-size:24px;font-style:italic;-inkscape-font-specification:Sans Italic">Nucleus</tspan></text>
  </g>
</svg>
